# xmcd
#
# Track frame offsets:
#	150
#	17613
#	33060
#	47940
#	63525
#	82227
#	99910
#	118759
#
# Disc length: 1762 seconds
#
# Revision: 0
# Processed by: cddbd v1.5.2PL0 Copyright (c) Steve Scherf et al.
# Submitted via: EasyCDDAExtractor 5.0.0.0
#
DISCID=6206e008
DTITLE=Sassparilla - The Darndest Thing
DYEAR=2011
DGENRE=Folk-Rock
TTITLE0=new love
TTITLE1=same old blues
TTITLE2=bone colored moon
TTITLE3=overcoat
TTITLE4=confession
TTITLE5=fumes
TTITLE6=my first lover
TTITLE7=you've got it bad
EXTD=
EXTT0=
EXTT1=
EXTT2=
EXTT3=
EXTT4=
EXTT5=
EXTT6=
EXTT7=
PLAYORDER=
